<svg width="63" height="62" viewBox="0 0 63 62" fill="none" xmlns="http://www.w3.org/2000/svg">
<g clip-path="url(#clip0_47_3483)">
<path d="M47.2996 29.7088C47.2996 30.4218 46.721 31.0005 46.008 31.0005H17.5913C16.8783 31.0005 16.2996 30.4218 16.2996 29.7088C16.2996 28.9958 16.8783 28.4172 17.5913 28.4172H46.008C46.721 28.4172 47.2996 28.9958 47.2996 29.7088ZM46.008 38.7505H17.5913C16.8783 38.7505 16.2996 39.3292 16.2996 40.0422C16.2996 40.7552 16.8783 41.3338 17.5913 41.3338H46.008C46.721 41.3338 47.2996 40.7552 47.2996 40.0422C47.2996 39.3292 46.721 38.7505 46.008 38.7505ZM44.9359 47.0714C44.8455 47.2057 42.6316 50.3755 38.258 50.3755C35.6798 50.3755 34.1763 49.5488 32.4326 48.593C30.6346 47.6036 28.7203 46.5031 25.3336 46.5005C19.8543 46.5289 16.6846 50.7191 16.5554 50.8973C16.1317 51.4682 16.2506 52.2742 16.8215 52.7005C17.3898 53.1267 18.1984 53.0131 18.6272 52.4396C18.6531 52.406 21.1873 49.1045 25.3516 49.0838C27.8988 49.0037 29.4488 49.8976 31.1926 50.8586C32.988 51.8428 35.0185 52.9588 38.2606 52.9588C44.0524 52.9588 46.9638 48.6912 47.0852 48.5077C47.4779 47.9162 47.3203 47.1205 46.7287 46.7227C46.1449 46.3274 45.3441 46.4772 44.9385 47.0688L44.9359 47.0714ZM57.633 25.7977V50.3781C57.633 56.7873 52.4172 62.0031 46.008 62.0031H17.5913C11.1821 62.0031 5.96631 56.7873 5.96631 50.3781V11.6255C5.96631 5.21624 11.1821 0.000488281 17.5913 0.000488281H31.8384C36.3205 0.000488281 40.5391 1.74682 43.714 4.91916L52.7143 13.9221C55.8866 17.0918 57.633 21.3078 57.633 25.7951V25.7977ZM41.885 6.74557C40.4616 5.32474 38.785 4.26815 36.9663 3.56549V16.7922C36.9663 18.9286 38.7049 20.6672 40.8413 20.6672H54.0706C53.3653 18.8485 52.3087 17.1693 50.8879 15.7485L41.885 6.74557ZM55.0496 25.7977C55.0496 24.9322 54.9515 24.0849 54.8016 23.2531H40.8413C37.2789 23.2531 34.383 20.3546 34.383 16.7947V2.83182C33.5486 2.68199 32.7012 2.58382 31.8384 2.58382H17.5913C12.6055 2.58382 8.54964 6.63966 8.54964 11.6255V50.3755C8.54964 55.3613 12.6055 59.4172 17.5913 59.4172H46.008C50.9938 59.4172 55.0496 55.3613 55.0496 50.3755V25.7951V25.7977Z" fill="white"/>
</g>
<defs>
<clipPath id="clip0_47_3483">
<rect width="62" height="62" fill="white" transform="translate(0.799561 0.000488281)"/>
</clipPath>
</defs>
</svg>
