<svg width="63" height="62" viewBox="0 0 63 62" fill="none" xmlns="http://www.w3.org/2000/svg">
<rect x="0.920654" width="62" height="62" rx="8" fill="white" fill-opacity="0.1"/>
<path d="M31.9019 35.26L35.9544 39.8675C37.4544 41.5737 38.2057 42.4275 38.9919 42.2187C39.7769 42.0112 40.0469 40.8887 40.5857 38.6425L43.5732 26.1825C44.4044 22.7225 44.8194 20.9937 43.8969 20.14C42.9744 19.2862 41.3757 19.9212 38.1782 21.19L23.3457 27.0812C20.7882 28.0975 19.5094 28.605 19.4282 29.4775C19.4186 29.5664 19.4186 29.6561 19.4282 29.745C19.5069 30.6187 20.7832 31.13 23.3382 32.1537C24.4944 32.6175 25.0732 32.85 25.4882 33.2937C25.5349 33.3437 25.5799 33.3954 25.6232 33.4487C26.0057 33.9237 26.1682 34.5487 26.4944 35.7937L27.1057 38.1275C27.4219 39.34 27.5807 39.9475 27.9969 40.03C28.4132 40.1125 28.7744 39.61 29.4982 38.6037L31.9019 35.26ZM31.9019 35.26L31.5057 34.8475C31.0532 34.375 30.8269 34.14 30.8269 33.8475C30.8269 33.555 31.0519 33.3187 31.5057 32.8475L35.9719 28.1925" stroke="white" stroke-width="1.5" stroke-linecap="round" stroke-linejoin="round"/>
</svg>
